# xmcd CD database file
#
# Track frame offsets:
#	150
#	17774
#	29377
#	50083
#	64043
#	76726
#	87139
#	100923
#	111717
#	123411
#	140896
#	153860
#	170018
#	182780
#	199307
#	218728
#	231834
#	245935
#	256862
#	277193
#
# Disc length: 3937 seconds
#
# Revision: 1
# Processed by: cddbd v1.5.2PL0 Copyright (c) Steve Scherf et al.
# Submitted via: CDex 1.70beta2
#
DISCID=2c0f5f14
DTITLE=Time Life Music - Classic Country - Country Standard Time
DYEAR=2006
DGENRE=Country
TTITLE0=Willie Nelson - All of Me
TTITLE1=Suzy Bogguss - Straighten Up And Fly Right
TTITLE2=Hank Williams Jr. - Ain't Misbehavin'
TTITLE3=Charlie Rich - Since I Fell For YOu
TTITLE4=Patsy Cline - You Made Me Love You (I Didn't Want To Do It)
TTITLE5=Jim Reeves - It's Only A Paper Moon
TTITLE6=Ferlin Husky - The Waltz You Saved For Me
TTITLE7=George Jones and Tammy Wynette - Near You
TTITLE8=Marty Robbins - Among My Souvenirs
TTITLE9=LeAnn Rimes - Unchained Melody
TTITLE10=Asleep At The Wheel - Route 66
TTITLE11=Lorrie Morgan - Fly Me To The Moon
TTITLE12=Mickey Gilley - Room Full of Roses
TTITLE13=Freddy Fender - Secret Love
TTITLE14=Crystal Gayle - Cry
TTITLE15=Ray Stevens - Misty
TTITLE16=Ray Price - Danny Boy
TTITLE17=Kitty Wells - My Happiness
TTITLE18=Jerry Lee Lewis - Over The Rainbow
TTITLE19=Merle Haggard - Stardust
EXTD=YEAR: 2006
EXTT0=
EXTT1=
EXTT2=
EXTT3=
EXTT4=
EXTT5=
EXTT6=
EXTT7=
EXTT8=
EXTT9=
EXTT10=
EXTT11=
EXTT12=
EXTT13=
EXTT14=
EXTT15=
EXTT16=
EXTT17=
EXTT18=
EXTT19=
PLAYORDER=
